# xmcd
#
# Track frame offsets: 
#        150
#        19024
#        36547
#        53070
#        68896
#        79660
#        94532
#        112408
#        127961
#        151922
#        164002
#        178451
#        196682
#        214804
#
# Disc length: 3054 seconds
#
# Revision: 0
# Processed by: cddbd v1.5.2PL0 Copyright (c) Steve Scherf et al.
# Submitted via: ExactAudioCopy v0.99pb5
#
DISCID=c40bec0e
DTITLE=Dan Ciotoi and Generic - Album de colectie vol.2
DYEAR=1990
DGENRE=Oldies
TTITLE0=Vine tata Anul Nou
TTITLE1=Frumusetea ta-i de vina
TTITLE2=Isaura
TTITLE3=Of ce scumpa-i mama
TTITLE4=Ce n-as da si ce n-as da
TTITLE5=Zori de ziua se revarsa
TTITLE6=Iubesc ochii tai caprui
TTITLE7=Iti zic adio si te las
TTITLE8=Nevasta, nevasta mea
TTITLE9=Tu esti floarea cea mai rara
TTITLE10=Adela, ce pacat
TTITLE11=Am visat aseara pe baiatul meu
TTITLE12=De ce oare
TTITLE13=Daniela
EXTD=
EXTT0=
EXTT1=
EXTT2=
EXTT3=
EXTT4=
EXTT5=
EXTT6=
EXTT7=
EXTT8=
EXTT9=
EXTT10=
EXTT11=
EXTT12=
EXTT13=
PLAYORDER=
